<svg width="81" height="81" viewBox="0 0 81 81" fill="none" xmlns="http://www.w3.org/2000/svg">
<path fill-rule="evenodd" clip-rule="evenodd" d="M39.9852 14C41.6421 14 42.9852 15.3431 42.9852 17V22.2547L49.6567 18.2682C51.079 17.4183 52.921 17.8824 53.7708 19.3046C54.6207 20.7269 54.1567 22.5689 52.7344 23.4187L42.9852 29.2442V37.0388L54.4524 30.1333C55.8717 29.2785 57.7152 29.7363 58.57 31.1556C59.4247 32.575 58.967 34.4185 57.5476 35.2733L46.2569 42.0725L57.5359 48.7944C58.9591 49.6427 59.4253 51.4841 58.577 52.9073C57.7288 54.3306 55.8874 54.7968 54.4641 53.9485L42.9852 47.1074V64C42.9852 65.6569 41.6421 67 39.9852 67C38.3284 67 36.9852 65.6569 36.9852 64V47.6559L26.5476 53.9415C25.1283 54.7962 23.2848 54.3385 22.43 52.9191C21.5753 51.4998 22.033 49.6563 23.4524 48.8015L34.5819 42.0993L23.6929 35.6098C22.2697 34.7615 21.8035 32.9201 22.6517 31.4969C23.5 30.0736 25.3414 29.6074 26.7646 30.4557L36.9852 36.5469V17C36.9852 15.3431 38.3284 14 39.9852 14Z" fill="white"/>
<path fill-rule="evenodd" clip-rule="evenodd" d="M40.5 75C59.5538 75 75 59.5538 75 40.5C75 21.4462 59.5538 6 40.5 6C21.4462 6 6 21.4462 6 40.5C6 59.5538 21.4462 75 40.5 75ZM40.5 81C62.8675 81 81 62.8675 81 40.5C81 18.1325 62.8675 0 40.5 0C18.1325 0 0 18.1325 0 40.5C0 62.8675 18.1325 81 40.5 81Z" fill="white"/>
</svg>
