<svg width="273" height="81" viewBox="0 0 273 81" fill="none" xmlns="http://www.w3.org/2000/svg">
<path fill-rule="evenodd" clip-rule="evenodd" d="M39.9852 14C41.6421 14 42.9852 15.3431 42.9852 17V22.2547L49.6567 18.2682C51.079 17.4183 52.921 17.8824 53.7708 19.3046C54.6207 20.7269 54.1567 22.5689 52.7344 23.4187L42.9852 29.2442V37.0388L54.4524 30.1333C55.8717 29.2785 57.7152 29.7363 58.57 31.1556C59.4247 32.575 58.967 34.4185 57.5476 35.2733L46.2569 42.0725L57.5359 48.7944C58.9591 49.6427 59.4253 51.4841 58.577 52.9073C57.7288 54.3306 55.8874 54.7968 54.4641 53.9485L42.9852 47.1074V64C42.9852 65.6569 41.6421 67 39.9852 67C38.3284 67 36.9852 65.6569 36.9852 64V47.6559L26.5476 53.9415C25.1283 54.7962 23.2848 54.3385 22.43 52.9191C21.5753 51.4998 22.033 49.6563 23.4524 48.8015L34.5819 42.0993L23.6929 35.6098C22.2697 34.7615 21.8035 32.9201 22.6517 31.4969C23.5 30.0736 25.3414 29.6074 26.7646 30.4557L36.9852 36.5469V17C36.9852 15.3431 38.3284 14 39.9852 14Z" fill="white"/>
<path fill-rule="evenodd" clip-rule="evenodd" d="M40.5 75C59.5538 75 75 59.5538 75 40.5C75 21.4462 59.5538 6 40.5 6C21.4462 6 6 21.4462 6 40.5C6 59.5538 21.4462 75 40.5 75ZM40.5 81C62.8675 81 81 62.8675 81 40.5C81 18.1325 62.8675 0 40.5 0C18.1325 0 0 18.1325 0 40.5C0 62.8675 18.1325 81 40.5 81Z" fill="white"/>
<path d="M107.7 63.25H101V27.75H107.65V29.1C109.817 27.8 111.717 27.15 113.35 27.15C115.05 27.15 116.517 27.4 117.75 27.9C118.983 28.3667 120 29.1333 120.8 30.2C121.6 31.2333 122.2 32.6 122.6 34.3C123 36 123.2 38.05 123.2 40.45C123.2 42.85 122.983 44.8833 122.55 46.55C122.117 48.1833 121.433 49.5167 120.5 50.55C119.6 51.55 118.433 52.2667 117 52.7C115.567 53.1333 113.85 53.35 111.85 53.35C110.75 53.35 109.567 53.25 108.3 53.05L107.7 52.95V63.25ZM112.05 33.15C110.817 33.15 109.567 33.4 108.3 33.9L107.7 34.15V47.25C109.2 47.45 110.417 47.55 111.35 47.55C113.283 47.55 114.6 46.9833 115.3 45.85C116.033 44.7167 116.4 42.7833 116.4 40.05C116.4 35.45 114.95 33.15 112.05 33.15Z" fill="white"/>
<path d="M138.397 27.15C142.531 27.15 145.481 28.3 147.247 30.6C149.014 32.8667 149.897 36.0667 149.897 40.2C149.897 48.9667 146.064 53.35 138.397 53.35C130.731 53.35 126.897 48.9667 126.897 40.2C126.897 38.2 127.097 36.4 127.497 34.8C127.897 33.2 128.547 31.8333 129.447 30.7C130.347 29.5667 131.531 28.7 132.997 28.1C134.464 27.4667 136.264 27.15 138.397 27.15ZM138.397 47.65C140.197 47.65 141.431 47.0667 142.097 45.9C142.764 44.7 143.097 42.8 143.097 40.2C143.097 37.6 142.764 35.7333 142.097 34.6C141.431 33.4333 140.197 32.85 138.397 32.85C136.597 32.85 135.364 33.4333 134.697 34.6C134.031 35.7333 133.697 37.6 133.697 40.2C133.697 41.0667 133.731 41.95 133.797 42.85C133.897 43.7167 134.097 44.5167 134.397 45.25C134.731 45.95 135.197 46.5333 135.797 47C136.431 47.4333 137.297 47.65 138.397 47.65Z" fill="white"/>
<path d="M158.459 52.75L152.459 27.75H159.459L163.459 47.05H164.859L169.059 27.75H175.859L169.859 52.75H158.459Z" fill="white"/>
<path d="M199.911 43.1H185.211C185.244 44.6333 185.644 45.75 186.411 46.45C187.178 47.1167 188.311 47.45 189.811 47.45C192.911 47.45 195.678 47.35 198.111 47.15L199.511 47L199.611 51.95C195.844 52.8833 192.378 53.35 189.211 53.35C185.444 53.35 182.711 52.35 181.011 50.35C179.311 48.35 178.461 45.1 178.461 40.6C178.461 31.6333 182.144 27.15 189.511 27.15C196.778 27.15 200.411 30.9167 200.411 38.45L199.911 43.1ZM185.161 38H193.811C193.811 36 193.494 34.6167 192.861 33.85C192.261 33.05 191.161 32.65 189.561 32.65C187.961 32.65 186.828 33.0667 186.161 33.9C185.528 34.7 185.194 36.0667 185.161 38Z" fill="white"/>
<path d="M211.899 52.75H205.199V27.75H211.849V30.4C214.716 28.7333 217.383 27.65 219.849 27.15V33.9C218.483 34.1667 217.216 34.45 216.049 34.75C214.916 35.05 213.866 35.35 212.899 35.65L211.899 36V52.75Z" fill="white"/>
<path d="M234.003 27.15C238.136 27.15 241.086 28.3 242.853 30.6C244.619 32.8667 245.503 36.0667 245.503 40.2C245.503 48.9667 241.669 53.35 234.003 53.35C226.336 53.35 222.503 48.9667 222.503 40.2C222.503 38.2 222.703 36.4 223.103 34.8C223.503 33.2 224.153 31.8333 225.053 30.7C225.953 29.5667 227.136 28.7 228.603 28.1C230.069 27.4667 231.869 27.15 234.003 27.15ZM234.003 47.65C235.803 47.65 237.036 47.0667 237.703 45.9C238.369 44.7 238.703 42.8 238.703 40.2C238.703 37.6 238.369 35.7333 237.703 34.6C237.036 33.4333 235.803 32.85 234.003 32.85C232.203 32.85 230.969 33.4333 230.303 34.6C229.636 35.7333 229.303 37.6 229.303 40.2C229.303 41.0667 229.336 41.95 229.403 42.85C229.503 43.7167 229.703 44.5167 230.003 45.25C230.336 45.95 230.803 46.5333 231.403 47C232.036 47.4333 232.903 47.65 234.003 47.65Z" fill="white"/>
<path d="M257.114 33.95V52.75H250.414V17.75H257.114V28.95C259.414 27.75 261.481 27.15 263.314 27.15C264.981 27.15 266.364 27.4 267.464 27.9C268.597 28.3667 269.497 29.1 270.164 30.1C270.864 31.1 271.364 32.35 271.664 33.85C271.964 35.35 272.114 37.1333 272.114 39.2V52.75H265.414V39.35C265.414 37.25 265.164 35.7 264.664 34.7C264.164 33.6667 263.164 33.15 261.664 33.15C260.364 33.15 259.064 33.35 257.764 33.75L257.114 33.95Z" fill="white"/>
</svg>
