<svg width="172" height="147" viewBox="0 0 172 147" fill="none" xmlns="http://www.w3.org/2000/svg">
<path fill-rule="evenodd" clip-rule="evenodd" d="M85.0423 14C86.6991 14 88.0423 15.3431 88.0423 17V22.2547L94.7138 18.2682C96.1361 17.4183 97.978 17.8824 98.8279 19.3046C99.6777 20.7269 99.2137 22.5689 97.7914 23.4187L88.0423 29.2442V37.0388L99.5094 30.1333C100.929 29.2785 102.772 29.7363 103.627 31.1556C104.482 32.575 104.024 34.4185 102.605 35.2733L91.314 42.0725L102.593 48.7944C104.016 49.6427 104.482 51.4841 103.634 52.9073C102.786 54.3306 100.944 54.7968 99.5212 53.9485L88.0423 47.1074V64C88.0423 65.6569 86.6991 67 85.0423 67C83.3854 67 82.0423 65.6569 82.0423 64V47.6559L71.6047 53.9415C70.1853 54.7962 68.3418 54.3385 67.4871 52.9191C66.6323 51.4998 67.09 49.6563 68.5094 48.8015L79.6389 42.0993L68.75 35.6098C67.3267 34.7615 66.8605 32.9201 67.7088 31.4969C68.557 30.0736 70.3984 29.6074 71.8217 30.4557L82.0423 36.5469V17C82.0423 15.3431 83.3854 14 85.0423 14Z" fill="#0D0D0D"/>
<path fill-rule="evenodd" clip-rule="evenodd" d="M85.557 75C104.611 75 120.057 59.5538 120.057 40.5C120.057 21.4462 104.611 6 85.557 6C66.5032 6 51.057 21.4462 51.057 40.5C51.057 59.5538 66.5032 75 85.557 75ZM85.557 81C107.925 81 126.057 62.8675 126.057 40.5C126.057 18.1325 107.925 0 85.557 0C63.1895 0 45.057 18.1325 45.057 40.5C45.057 62.8675 63.1895 81 85.557 81Z" fill="#0D0D0D"/>
<path d="M6.7 146.5H0V111H6.65V112.35C8.81667 111.05 10.7167 110.4 12.35 110.4C14.05 110.4 15.5167 110.65 16.75 111.15C17.9833 111.617 19 112.383 19.8 113.45C20.6 114.483 21.2 115.85 21.6 117.55C22 119.25 22.2 121.3 22.2 123.7C22.2 126.1 21.9833 128.133 21.55 129.8C21.1167 131.433 20.4333 132.767 19.5 133.8C18.6 134.8 17.4333 135.517 16 135.95C14.5667 136.383 12.85 136.6 10.85 136.6C9.75 136.6 8.56667 136.5 7.3 136.3L6.7 136.2V146.5ZM11.05 116.4C9.81667 116.4 8.56667 116.65 7.3 117.15L6.7 117.4V130.5C8.2 130.7 9.41667 130.8 10.35 130.8C12.2833 130.8 13.6 130.233 14.3 129.1C15.0333 127.967 15.4 126.033 15.4 123.3C15.4 118.7 13.95 116.4 11.05 116.4Z" fill="#0D0D0D"/>
<path d="M37.3973 110.4C41.5306 110.4 44.4806 111.55 46.2473 113.85C48.0139 116.117 48.8973 119.317 48.8973 123.45C48.8973 132.217 45.0639 136.6 37.3973 136.6C29.7306 136.6 25.8973 132.217 25.8973 123.45C25.8973 121.45 26.0973 119.65 26.4973 118.05C26.8973 116.45 27.5473 115.083 28.4473 113.95C29.3473 112.817 30.5306 111.95 31.9973 111.35C33.4639 110.717 35.2639 110.4 37.3973 110.4ZM37.3973 130.9C39.1973 130.9 40.4306 130.317 41.0973 129.15C41.7639 127.95 42.0973 126.05 42.0973 123.45C42.0973 120.85 41.7639 118.983 41.0973 117.85C40.4306 116.683 39.1973 116.1 37.3973 116.1C35.5973 116.1 34.3639 116.683 33.6973 117.85C33.0306 118.983 32.6973 120.85 32.6973 123.45C32.6973 124.317 32.7306 125.2 32.7973 126.1C32.8973 126.967 33.0973 127.767 33.3973 128.5C33.7306 129.2 34.1973 129.783 34.7973 130.25C35.4306 130.683 36.2973 130.9 37.3973 130.9Z" fill="#0D0D0D"/>
<path d="M57.4586 136L51.4586 111H58.4586L62.4586 130.3H63.8586L68.0586 111H74.8586L68.8586 136H57.4586Z" fill="#0D0D0D"/>
<path d="M98.9109 126.35H84.2109C84.2443 127.883 84.6443 129 85.4109 129.7C86.1776 130.367 87.3109 130.7 88.8109 130.7C91.9109 130.7 94.6776 130.6 97.1109 130.4L98.5109 130.25L98.6109 135.2C94.8443 136.133 91.3776 136.6 88.2109 136.6C84.4443 136.6 81.7109 135.6 80.0109 133.6C78.3109 131.6 77.4609 128.35 77.4609 123.85C77.4609 114.883 81.1443 110.4 88.5109 110.4C95.7776 110.4 99.4109 114.167 99.4109 121.7L98.9109 126.35ZM84.1609 121.25H92.8109C92.8109 119.25 92.4943 117.867 91.8609 117.1C91.2609 116.3 90.1609 115.9 88.5609 115.9C86.9609 115.9 85.8276 116.317 85.1609 117.15C84.5276 117.95 84.1943 119.317 84.1609 121.25Z" fill="#0D0D0D"/>
<path d="M110.899 136H104.199V111H110.849V113.65C113.716 111.983 116.383 110.9 118.849 110.4V117.15C117.483 117.417 116.216 117.7 115.049 118C113.916 118.3 112.866 118.6 111.899 118.9L110.899 119.25V136Z" fill="#0D0D0D"/>
<path d="M133.003 110.4C137.136 110.4 140.086 111.55 141.853 113.85C143.619 116.117 144.503 119.317 144.503 123.45C144.503 132.217 140.669 136.6 133.003 136.6C125.336 136.6 121.503 132.217 121.503 123.45C121.503 121.45 121.703 119.65 122.103 118.05C122.503 116.45 123.153 115.083 124.053 113.95C124.953 112.817 126.136 111.95 127.603 111.35C129.069 110.717 130.869 110.4 133.003 110.4ZM133.003 130.9C134.803 130.9 136.036 130.317 136.703 129.15C137.369 127.95 137.703 126.05 137.703 123.45C137.703 120.85 137.369 118.983 136.703 117.85C136.036 116.683 134.803 116.1 133.003 116.1C131.203 116.1 129.969 116.683 129.303 117.85C128.636 118.983 128.303 120.85 128.303 123.45C128.303 124.317 128.336 125.2 128.403 126.1C128.503 126.967 128.703 127.767 129.003 128.5C129.336 129.2 129.803 129.783 130.403 130.25C131.036 130.683 131.903 130.9 133.003 130.9Z" fill="#0D0D0D"/>
<path d="M156.114 117.2V136H149.414V101H156.114V112.2C158.414 111 160.481 110.4 162.314 110.4C163.981 110.4 165.364 110.65 166.464 111.15C167.597 111.617 168.497 112.35 169.164 113.35C169.864 114.35 170.364 115.6 170.664 117.1C170.964 118.6 171.114 120.383 171.114 122.45V136H164.414V122.6C164.414 120.5 164.164 118.95 163.664 117.95C163.164 116.917 162.164 116.4 160.664 116.4C159.364 116.4 158.064 116.6 156.764 117L156.114 117.2Z" fill="#0D0D0D"/>
</svg>
