<svg width="172" height="46" viewBox="0 0 172 46" fill="none" xmlns="http://www.w3.org/2000/svg">
<path d="M6.7 45.5H0V10H6.65V11.35C8.81667 10.05 10.7167 9.4 12.35 9.4C14.05 9.4 15.5167 9.65 16.75 10.15C17.9833 10.6167 19 11.3833 19.8 12.45C20.6 13.4833 21.2 14.85 21.6 16.55C22 18.25 22.2 20.3 22.2 22.7C22.2 25.1 21.9833 27.1333 21.55 28.8C21.1167 30.4333 20.4333 31.7667 19.5 32.8C18.6 33.8 17.4333 34.5167 16 34.95C14.5667 35.3833 12.85 35.6 10.85 35.6C9.75 35.6 8.56667 35.5 7.3 35.3L6.7 35.2V45.5ZM11.05 15.4C9.81667 15.4 8.56667 15.65 7.3 16.15L6.7 16.4V29.5C8.2 29.7 9.41667 29.8 10.35 29.8C12.2833 29.8 13.6 29.2333 14.3 28.1C15.0333 26.9667 15.4 25.0333 15.4 22.3C15.4 17.7 13.95 15.4 11.05 15.4Z" fill="#0D0D0D"/>
<path d="M37.3973 9.4C41.5306 9.4 44.4806 10.55 46.2473 12.85C48.0139 15.1167 48.8973 18.3167 48.8973 22.45C48.8973 31.2167 45.0639 35.6 37.3973 35.6C29.7306 35.6 25.8973 31.2167 25.8973 22.45C25.8973 20.45 26.0973 18.65 26.4973 17.05C26.8973 15.45 27.5473 14.0833 28.4473 12.95C29.3473 11.8167 30.5306 10.95 31.9973 10.35C33.4639 9.71667 35.2639 9.4 37.3973 9.4ZM37.3973 29.9C39.1973 29.9 40.4306 29.3167 41.0973 28.15C41.7639 26.95 42.0973 25.05 42.0973 22.45C42.0973 19.85 41.7639 17.9833 41.0973 16.85C40.4306 15.6833 39.1973 15.1 37.3973 15.1C35.5973 15.1 34.3639 15.6833 33.6973 16.85C33.0306 17.9833 32.6973 19.85 32.6973 22.45C32.6973 23.3167 32.7306 24.2 32.7973 25.1C32.8973 25.9667 33.0973 26.7667 33.3973 27.5C33.7306 28.2 34.1973 28.7833 34.7973 29.25C35.4306 29.6833 36.2973 29.9 37.3973 29.9Z" fill="#0D0D0D"/>
<path d="M57.4586 35L51.4586 10H58.4586L62.4586 29.3H63.8586L68.0586 10H74.8586L68.8586 35H57.4586Z" fill="#0D0D0D"/>
<path d="M98.9109 25.35H84.2109C84.2443 26.8833 84.6443 28 85.4109 28.7C86.1776 29.3667 87.3109 29.7 88.8109 29.7C91.9109 29.7 94.6776 29.6 97.1109 29.4L98.5109 29.25L98.6109 34.2C94.8443 35.1333 91.3776 35.6 88.2109 35.6C84.4443 35.6 81.7109 34.6 80.0109 32.6C78.3109 30.6 77.4609 27.35 77.4609 22.85C77.4609 13.8833 81.1443 9.4 88.5109 9.4C95.7776 9.4 99.4109 13.1667 99.4109 20.7L98.9109 25.35ZM84.1609 20.25H92.8109C92.8109 18.25 92.4943 16.8667 91.8609 16.1C91.2609 15.3 90.1609 14.9 88.5609 14.9C86.9609 14.9 85.8276 15.3167 85.1609 16.15C84.5276 16.95 84.1943 18.3167 84.1609 20.25Z" fill="#0D0D0D"/>
<path d="M110.899 35H104.199V10H110.849V12.65C113.716 10.9833 116.383 9.9 118.849 9.4V16.15C117.483 16.4167 116.216 16.7 115.049 17C113.916 17.3 112.866 17.6 111.899 17.9L110.899 18.25V35Z" fill="#0D0D0D"/>
<path d="M133.003 9.4C137.136 9.4 140.086 10.55 141.853 12.85C143.619 15.1167 144.503 18.3167 144.503 22.45C144.503 31.2167 140.669 35.6 133.003 35.6C125.336 35.6 121.503 31.2167 121.503 22.45C121.503 20.45 121.703 18.65 122.103 17.05C122.503 15.45 123.153 14.0833 124.053 12.95C124.953 11.8167 126.136 10.95 127.603 10.35C129.069 9.71667 130.869 9.4 133.003 9.4ZM133.003 29.9C134.803 29.9 136.036 29.3167 136.703 28.15C137.369 26.95 137.703 25.05 137.703 22.45C137.703 19.85 137.369 17.9833 136.703 16.85C136.036 15.6833 134.803 15.1 133.003 15.1C131.203 15.1 129.969 15.6833 129.303 16.85C128.636 17.9833 128.303 19.85 128.303 22.45C128.303 23.3167 128.336 24.2 128.403 25.1C128.503 25.9667 128.703 26.7667 129.003 27.5C129.336 28.2 129.803 28.7833 130.403 29.25C131.036 29.6833 131.903 29.9 133.003 29.9Z" fill="#0D0D0D"/>
<path d="M156.114 16.2V35H149.414V0H156.114V11.2C158.414 10 160.481 9.4 162.314 9.4C163.981 9.4 165.364 9.65 166.464 10.15C167.597 10.6167 168.497 11.35 169.164 12.35C169.864 13.35 170.364 14.6 170.664 16.1C170.964 17.6 171.114 19.3833 171.114 21.45V35H164.414V21.6C164.414 19.5 164.164 17.95 163.664 16.95C163.164 15.9167 162.164 15.4 160.664 15.4C159.364 15.4 158.064 15.6 156.764 16L156.114 16.2Z" fill="#0D0D0D"/>
</svg>
