<svg width="30" height="34" viewBox="0 0 30 34" fill="none" xmlns="http://www.w3.org/2000/svg">
<path fill-rule="evenodd" clip-rule="evenodd" d="M28.8669 34C29.4917 34 30 33.5289 30 32.9498V11.8764C30 11.2973 29.4917 10.8262 28.8669 10.8262H1.13307C0.508295 10.8262 0 11.2973 0 11.8764V32.9498C0 33.5289 0.508295 34 1.13307 34H28.8669Z" fill="#FFD500"/>
<path d="M4.1299 29.8874C4.17226 27.679 5.54889 26.0202 7.77268 26.0202C9.41405 26.0202 10.4306 26.8251 10.653 28.1894C10.8224 29.2396 10.6212 29.8776 9.30815 29.8776L4.69114 30.0837C4.78645 33.0283 6.86198 34.0098 9.40346 33.9902H11.0131L11.0025 33.3129H9.43523C7.09495 33.2442 5.77127 32.3216 5.69714 30.6628L9.97529 30.4567C10.8754 30.4273 11.5319 30.0445 11.5319 28.9844C11.5319 27.1097 10.42 25.3331 7.78327 25.3331C5.36887 25.3331 3.29333 26.933 3.29333 29.9169C3.29333 31.5953 3.88634 33.1166 5.10413 33.9902H6.51253C4.97706 33.362 4.08754 31.9388 4.1299 29.8874Z" fill="#0D0D0D"/>
<path d="M14.5923 27.944V33.9902H15.5665V28.2385C16.096 27.6495 17.0491 27.2079 17.7692 27.2079C18.6375 27.2079 19.0611 27.5023 19.0717 28.5133L19.0822 33.9902H20.0141V28.4053C20.0141 27.198 19.4105 26.4913 17.8433 26.4913C16.9114 26.4913 15.8948 26.9527 14.5923 27.944Z" fill="#0D0D0D"/>
<path d="M14.0205 27.6986C15.323 26.6582 16.6255 26.0006 17.9703 26.0006C19.6753 26.0006 20.6177 26.7858 20.586 28.4053V33.9902H21.5178V28.3955C21.5708 26.5895 20.586 25.343 18.1398 25.343C16.6678 25.343 14.8676 26.0006 13.0886 27.4729V33.9804H14.0205V27.6986Z" fill="#0D0D0D"/>
<path d="M24.6947 26.3834L25.3195 26.246V33.9902H26.209L26.1984 25.608C26.1984 25.3626 26.0501 25.2448 25.743 25.3233L23.8052 25.8141V33.9902H24.6947V26.3834Z" fill="#0D0D0D"/>
<path d="M25.0018 23.4094C25.6901 23.4094 26.2513 22.8891 26.2513 22.2512C26.2513 21.6132 25.6901 21.093 25.0018 21.093C24.3135 21.093 23.7522 21.6132 23.7522 22.2512C23.7416 22.8891 24.3029 23.4094 25.0018 23.4094Z" fill="#0D0D0D"/>
<path d="M10.0812 28.2777C9.90116 27.1391 9.12813 26.4913 7.76209 26.4913C6.07836 26.4913 4.9347 27.7281 4.72291 29.6322L9.17049 29.4359C10.0282 29.3868 10.2188 29.1218 10.0812 28.2777ZM9.28697 28.3366C9.28697 28.5722 9.14931 28.7685 8.6622 28.7881L5.75009 28.9255C5.8348 28.0225 6.56548 27.2079 7.67737 27.2079C8.91634 27.2177 9.27639 27.8753 9.28697 28.3366Z" fill="#0D0D0D"/>
<path d="M17.9174 2.65993C17.9174 2.54215 17.7586 2.36548 17.6315 2.30658C16.8796 1.89434 16.1172 2.42437 15.3653 2.42437C15.0794 2.42437 14.7935 2.48326 14.5817 2.33603C14.5817 2.21825 14.7088 2.1888 14.7088 2.07102C14.5182 2.07102 14.2958 2.01213 14.084 1.98268C14.084 1.98268 13.6075 1.95324 13.3216 1.8649C12.2838 1.45266 11.3096 1.24654 10.113 1.77656C9.73173 1.92379 9.3611 2.07102 8.94811 2.07102C8.7575 2.07102 9.23403 2.42437 9.17049 2.59123C8.53512 2.67956 7.97388 2.85624 7.43382 3.32737V3.35682C7.81504 3.7985 8.37628 3.85739 8.94811 3.85739C9.13872 3.85739 9.47759 4.26963 10.3671 4.38742C11.659 4.62298 12.4109 3.94573 13.3322 4.29908C13.2686 4.15185 13.2686 4.06351 13.2686 3.94573C14.3382 4.21074 15.1959 4.1813 16.0113 3.7985C16.7526 3.62183 17.102 2.63049 17.9174 2.65993Z" fill="#C90039"/>
<path d="M6.69255 2.86605L7.53971 2.42437C7.69855 2.45381 7.69855 2.60104 7.79386 2.68938C8.01624 2.63049 7.92093 2.33603 8.04801 2.1888C8.17508 2.1888 8.17508 2.36547 8.27039 2.45381C8.49276 2.45381 8.42923 2.12991 8.52453 1.98268C8.65161 1.806 9.00106 1.8649 8.93752 1.57044L8.61984 0.255196C8.57748 0.0981524 8.49276 0.0294457 8.42923 0.0490762C7.29615 0.431871 6.41723 0.80485 5.3371 1.1582C5.24179 1.18764 5.11472 1.22691 4.98765 1.18764L3.26156 0C3.35687 0.696882 3.45217 1.34469 3.51571 1.75693C3.5263 1.83545 3.51571 1.87471 3.45217 1.87471C3.10272 1.87471 2.77444 2.10046 2.57324 2.42437C2.27674 2.8955 2.00141 3.32737 1.50371 3.53349C1.59901 3.73961 1.78962 3.85739 1.98023 3.91628C2.13908 3.97517 2.29792 3.94573 2.45676 4.03406C2.45676 4.09296 2.42499 4.1224 2.39322 4.18129C1.98023 4.84873 2.49912 5.76155 1.7155 6.25231C2.06495 6.39954 2.58383 6.25231 2.86975 5.95785L2.9227 5.9873C2.70032 6.45843 2.6156 6.98845 2.64737 7.50866C2.64737 7.50866 2.66855 7.62644 2.6156 7.78349C2.6156 7.78349 2.55206 7.95035 2.5203 8.03868C3.53689 7.88164 3.90752 6.68418 3.99223 6.47806L4.07695 6.49769C4.07695 6.49769 3.73809 7.37125 4.03459 7.74423C4.09813 7.83256 4.21461 7.91109 4.32051 7.90127C4.43699 7.47922 4.69114 6.94919 5.10413 6.66455C5.48535 6.694 5.85598 6.87067 6.2372 7.0179C6.45958 6.51732 5.97247 5.79099 5.97247 5.79099L6.01483 5.76155L6.07836 5.82044C6.07836 5.82044 6.39605 6.14434 6.55489 6.26212C6.7455 6.37991 7.30674 6.49769 7.62443 6.32102C7.74091 6.26213 7.91034 6.1149 7.94211 5.99711C6.93611 6.056 6.87257 4.88799 6.39605 4.32852L6.42782 4.29908C6.68196 4.41686 6.80904 4.74076 7.06318 4.84873C7.06318 4.84873 8.38687 5.10393 8.43982 5.11374C8.53512 5.13337 8.56689 4.99596 8.56689 4.99596C8.57748 4.9567 8.70455 4.49538 8.64102 4.26963C8.48218 4.18129 8.41864 4.41686 8.29156 4.41686C7.94211 4.32852 7.71973 4.29908 7.3491 4.15185L6.71373 2.98383C6.65019 2.88568 6.69255 2.86605 6.69255 2.86605ZM6.19485 2.10046C6.19485 2.30658 6.036 2.45381 5.81363 2.45381C5.62301 2.45381 5.46417 2.30658 5.46417 2.10046C5.46417 1.89434 5.62301 1.74711 5.81363 1.74711C6.036 1.75693 6.19485 1.89434 6.19485 2.10046Z" fill="#0D0D0D"/>
<path d="M8.0586 12.6224C7.66679 12.5635 7.22203 12.485 6.81963 12.2887C6.81963 12.2887 6.72432 12.2396 6.72432 12.3181V12.8678C6.72432 13.0837 6.93611 13.3389 7.66679 13.28C7.66679 13.28 7.80445 13.5352 7.10554 13.7904C6.85139 13.8886 6.95729 14.0456 6.95729 14.0456C6.95729 14.0456 7.05259 14.2419 7.64561 14.4088C7.43382 14.7916 6.93611 14.821 7.03142 15.0468C7.03142 15.0468 7.09495 15.2136 7.46559 15.3118C7.3491 15.6357 7.01024 15.7535 6.91493 15.94C6.80904 16.1363 7.12672 16.2933 7.10554 16.3129C6.57607 16.627 6.17367 17.0589 6.11013 17.2846C5.91952 17.7852 5.81363 18.3643 5.69714 18.8453C5.65478 19.0121 5.44299 19.1495 5.30533 19.1594C4.78645 19.179 4.39464 19.1594 3.93929 19.1594C3.79103 19.1594 3.85457 19.0612 3.85457 19.0612C4.3311 18.2662 5.42181 17.6184 5.24179 16.6467C4.76527 14.026 3.93929 12.5046 3.46276 10.2079C3.28274 9.3343 3.26156 8.44111 3.56866 7.70497C3.65337 8.06813 4.11931 8.40185 4.50053 8.39204C4.65937 7.89146 4.98765 7.07679 5.21003 7.04735C5.46417 7.0179 6.33251 7.43014 6.33251 7.43014C6.58666 7.20439 6.65019 6.88049 6.67137 6.62529C6.95729 6.74307 7.24321 6.80197 7.62443 6.71363C8.28098 6.53696 8.37628 6.35047 8.59866 6.1149C8.85281 6.8903 8.48218 7.41051 8.39746 7.68534C8.39746 7.68534 8.38687 7.7246 8.39746 7.74423C8.40805 7.75405 8.42923 7.77368 8.49276 7.74423C8.72573 7.64608 8.96929 7.4694 9.10695 7.36144C9.27639 7.22402 9.74232 6.68418 9.74232 6.68418C10.0071 7.05716 9.94352 7.60682 9.77409 7.96998C9.77409 7.96998 9.68938 8.10739 9.87999 8.07795C10.3565 7.99943 10.706 7.15532 11.0448 7.0179C11.0448 7.0179 11.0766 7.00809 11.0766 7.0179C11.1084 7.39088 11.0872 7.95035 11.2566 8.22518C11.2566 8.22518 11.2884 8.3037 11.3519 8.21536C11.5319 7.96016 11.8285 7.28291 12.1567 7.22402C12.1461 7.65589 12.252 8.3037 12.4638 8.32333C12.6438 8.34296 12.8027 7.91109 12.8874 7.73441C12.9827 7.51848 13.1098 7.34181 13.2369 7.34181C13.2686 7.7246 13.4275 8.29388 13.7557 8.3037C13.9146 8.3037 13.8828 8.03869 13.9146 7.84238C13.9781 7.49885 14.1581 7.4007 14.1581 7.4007C14.264 7.71478 14.3911 7.95035 14.6664 8.11721C14.7511 8.16628 14.857 8.1761 14.8465 8.03869C14.8465 7.73441 14.91 7.4694 15.0477 7.35162C15.0582 7.4007 15.1324 7.49885 15.1853 7.56756C15.3336 7.75404 15.4924 7.84238 15.7254 7.77368C15.8313 7.74423 15.9266 7.62645 15.9372 7.53811C15.7571 7.29273 15.5242 6.8903 15.4924 6.59585C15.4289 6.15416 15.6513 5.78118 16.0219 5.60451C16.3078 5.45728 16.7208 5.42783 16.9644 5.63395C17.1232 5.76155 17.2503 5.94804 17.2503 6.16398C17.2503 6.34065 17.1656 6.51732 16.9961 6.59585C16.869 6.65474 16.7102 6.65474 16.5831 6.5664C16.4666 6.48788 16.3713 6.33083 16.276 6.27194C16.1807 6.47806 16.3396 6.71363 16.4666 6.86086C16.7314 7.12587 17.0597 7.06698 17.1973 6.98846C18.0127 6.42899 17.8539 5.86952 18.3622 4.73095C18.4786 4.47575 18.6163 4.22056 18.7963 3.98499C18.8175 3.95555 18.8387 3.9261 18.8599 3.89665C19.2623 3.33719 19.9506 2.97402 20.7236 2.97402C21.9626 2.97402 22.9686 3.90647 22.9686 5.05485C22.9686 5.62414 22.725 6.14435 22.3226 6.51732C22.2909 6.54677 22.2485 6.58603 22.2167 6.61548C22.0473 6.74308 22.0155 6.87067 22.1002 6.92956C22.3544 7.10624 22.4179 7.13568 22.6085 7.34181C23.4028 8.21536 23.7416 9.23615 24.1864 10.2569C24.3029 10.5023 24.4617 10.8066 24.6629 10.9833C25.0018 11.2875 25.3089 11.4053 25.7642 11.4544C25.8066 11.4544 25.5207 11.7685 25.7324 11.8961C25.8913 11.9844 26.3572 11.955 26.5161 11.8666C26.5796 12.3083 25.8383 12.4752 25.8913 12.6322C25.9336 12.7598 26.2725 12.8776 26.6749 12.8187C26.5796 13.1524 26.1772 13.1524 26.1666 13.3585C26.156 13.5647 26.3784 13.6628 26.6855 13.6039C26.6855 13.6039 26.569 13.7806 26.3149 14.026C26.0289 14.291 26.1984 14.6345 26.1984 14.6345C26.3149 14.8701 26.4419 15.1449 26.7384 15.3707C26.9502 15.5277 27.1091 15.6161 27.2362 15.7633C26.4208 16.1657 26.6114 16.843 26.5796 17.1963C26.5584 17.3043 26.4525 17.3141 26.4525 17.3141L24.79 17.5497C24.6523 17.5693 24.5464 17.5202 24.7053 17.3534C25.1077 16.9117 25.616 16.47 25.8913 15.9988C25.8489 15.832 25.7536 15.6651 25.6265 15.4786C25.0865 14.6738 24.5782 13.9278 24.0805 13.1132C24.0275 13.0248 23.8581 12.9954 23.8581 12.9954C22.6297 12.7893 21.2107 12.4457 20.3 11.9059C20.2365 11.8863 20.2365 11.9648 20.2365 11.9648C20.2365 12.1807 20.2153 12.6813 20.3212 12.8187C20.6177 13.2211 21.4119 13.0248 21.5284 13.0248C21.4966 13.3095 21.3272 13.4567 21.0201 13.6334C21.0201 13.6334 20.9566 13.6628 20.9884 13.7217C21.0307 13.8199 21.306 13.7708 21.5496 13.6923C21.4225 14.134 20.9989 14.1045 21.0307 14.2616C21.0519 14.3597 21.1896 14.4382 21.3378 14.4382C21.0942 14.7425 20.7448 14.7818 20.7448 15.0075L20.8083 16.0479C20.8083 16.0479 20.8083 16.0774 20.7872 16.097C20.766 16.1264 20.713 16.1363 20.713 16.1363L19.0928 16.4896C19.0505 16.4994 18.9975 16.4896 18.9658 16.4405C18.9234 16.3915 18.9869 16.3129 18.9869 16.3129L20.0247 14.8505C20.0882 14.5266 19.8341 14.3303 19.6753 14.0652C19.3258 13.653 18.9552 13.3291 18.5422 13.1034C18.2033 12.7107 18.1821 12.2691 18.108 12.0335C18.0762 11.9452 17.9809 11.9844 17.8856 12.0531C17.6633 12.2592 17.4515 12.5046 17.3138 12.7794C17.2397 12.9169 17.3773 13.015 17.568 13.0641C17.6844 13.0935 17.8856 13.1132 18.0974 13.0346C18.1292 13.3095 17.7797 13.5058 17.568 13.5941C17.568 13.5941 17.4938 13.6236 17.5468 13.6628C17.6738 13.7708 17.8962 13.7708 18.0551 13.7413C18.0551 13.7413 18.0021 14.0064 17.5785 14.2419C17.2397 14.4284 17.7903 14.4186 17.875 14.3793C17.8009 14.5756 17.4938 14.821 17.3985 14.9879C17.1867 15.3805 17.335 15.8614 17.3032 16.3031C17.2714 16.3915 17.1761 16.4307 17.0491 16.4503L15.3442 16.5092C15.2383 16.5092 15.2489 16.4013 15.3124 16.3326L16.509 14.9879C16.6043 14.8701 16.509 14.8014 16.4772 14.7523C15.9478 14.1143 15.4712 13.4371 15.1324 12.7107C14.8782 12.7402 14.4652 12.858 14.4123 13.0837C14.3593 13.28 14.8465 13.3193 15.0688 13.3193C15.0688 13.3193 15.1006 13.5254 14.4758 13.7315C14.4758 13.7315 14.137 13.8297 14.0311 13.9769C14.0311 13.9769 13.9993 14.0162 14.0417 14.0554C14.1793 14.1536 14.5288 14.1536 14.5817 14.1536C14.3276 14.4775 13.5969 14.4579 13.4486 14.5855C13.3745 14.6443 13.5334 14.7818 13.9675 14.7818C13.7557 15.0468 13.3851 15.0075 13.0568 15.0958C13.0568 15.0958 12.9086 15.1253 12.9509 15.2038C13.0674 15.4001 13.3533 15.351 13.2686 15.4394C13.1521 15.5572 12.8345 15.6357 12.6544 15.6848C12.5062 15.724 12.4321 15.8124 12.4321 15.8124C12.305 15.9301 12.3473 16.0774 12.2626 16.2737C12.1355 16.5681 11.9661 16.9019 11.7437 17.157C11.7437 17.157 11.712 17.2061 11.659 17.1669L10.5259 16.3228C10.4306 16.254 10.4836 16.1461 10.4836 16.1461C10.5895 15.94 10.8225 15.8909 11.0448 15.7731C11.3519 15.6062 11.659 15.4197 11.9343 15.1351C11.9979 15.0762 11.9979 15.0075 11.9979 15.0075C12.125 14.2419 12.3897 13.545 12.5803 12.7991C12.6333 12.5733 12.3579 12.6224 12.3579 12.6224C11.9767 12.6813 11.3731 12.8383 10.3565 12.75C10.2612 12.7402 10.24 12.7794 10.1659 12.9463C10.0706 13.1524 9.94352 13.2997 10.0706 13.4665C10.3036 13.7512 10.9495 13.5254 10.9389 13.5549C10.7166 14.0652 10.1235 13.9671 9.8694 14.2616C9.8694 14.2616 9.78468 14.3499 9.85881 14.4284C9.93293 14.5069 10.1871 14.5364 10.6001 14.4382C10.6001 14.4382 10.4306 14.8014 10.06 14.8995C9.75291 14.9879 9.55171 15.0271 9.50936 15.1547C9.47759 15.2529 9.58348 15.3412 10.06 15.2922C10.06 15.2922 9.94352 15.6259 9.50936 15.7437C9.23403 15.8124 9.18108 15.9792 9.10695 16.1068C8.92693 16.4209 8.88458 16.8626 8.65161 17.157C8.65161 17.157 8.61984 17.2061 8.54571 17.1374L7.57148 16.3424C7.53971 16.3129 7.51853 16.2835 7.51853 16.2835C7.42323 16.1657 7.69855 16.0381 7.80445 15.9596C8.0586 15.7731 8.47159 15.6062 8.52453 15.2333C8.59866 14.6738 8.3551 14.3401 8.19626 13.8591C8.07978 13.5156 8.07978 13.0837 8.10095 12.7402C8.11154 12.6322 8.0586 12.6224 8.0586 12.6224ZM17.7797 7.31236C17.7586 7.33199 17.748 7.36144 17.7903 7.36144C18.1398 7.36144 18.5104 7.15532 18.8281 6.9492C19.2305 6.70381 19.58 6.30139 19.8553 5.91859C20.0777 6.1149 20.3848 6.23268 20.713 6.23268C21.4119 6.23268 21.9732 5.71247 21.9732 5.06467C21.9732 4.41686 21.4119 3.88684 20.713 3.88684C20.6813 3.88684 20.6177 3.88684 20.586 3.88684C20.0247 3.91629 19.6435 4.21074 19.2623 4.84873C18.9446 5.4082 18.5422 6.57622 17.8115 7.2731C17.8221 7.2731 17.8009 7.28291 17.7797 7.31236Z" fill="#0D0D0D"/>
</svg>
