<svg width="30" height="27" viewBox="0 0 30 27" fill="none" xmlns="http://www.w3.org/2000/svg">
<path d="M5.50393 26.9944H14.562L28.8728 15.7053C29.5883 15.1408 29.9998 14.3362 29.9998 13.5006C29.9998 12.6651 29.5883 11.8605 28.8728 11.2958L14.562 0.00683594H5.50393C5.15441 0.00683594 4.94209 0.204436 4.86043 0.387931C4.77876 0.571426 4.78201 0.83961 5.0368 1.04286L20.3667 13.1365C20.4843 13.2296 20.5529 13.3651 20.5529 13.5035C20.5529 13.6417 20.4843 13.7773 20.3667 13.8705L5.0368 25.964C4.77873 26.1673 4.77549 26.4355 4.86043 26.619C4.94209 26.8025 5.15441 27 5.50393 27V26.9944Z" fill="#FF3D00"/>
<path d="M8.26434 5.66139L1.12694 11.2904C0.41157 11.855 0 12.6595 0 13.4951C0 14.3307 0.41157 15.1353 1.12694 15.6998L8.26434 21.3289L13.6803 17.0549L9.62978 13.8593C9.51219 13.7661 9.44357 13.6307 9.44357 13.4923C9.44357 13.3539 9.51219 13.2184 9.62978 13.1253L13.6803 9.92971L8.26434 5.65575V5.66139Z" fill="#FF3D00"/>
<path d="M24.4994 0H17.2084L21.7424 3.5767L24.9632 1.03603C25.2212 0.832774 25.2245 0.56459 25.1428 0.381095C25.0612 0.197612 24.8488 0 24.4994 0Z" fill="#FF3D00"/>
<path d="M21.7424 23.4146L17.2084 26.9912H24.4994C24.8488 26.9912 25.0612 26.7936 25.1428 26.6101C25.2245 26.4266 25.2212 26.1585 24.9632 25.9552L21.7424 23.4146Z" fill="#FF3D00"/>
</svg>
