<svg width="30" height="29" viewBox="0 0 30 29" fill="none" xmlns="http://www.w3.org/2000/svg">
<path d="M14.9999 0C6.71587 0 0 6.49198 0 14.5001C0 22.5085 6.71587 29 14.9999 29C23.2849 29 30 22.5085 30 14.5001C30 6.4925 23.2849 0.000692604 14.9997 0.000692604L14.9999 0ZM21.8788 20.9133C21.6101 21.3392 21.0333 21.4743 20.5927 21.2128C17.0709 19.1333 12.6373 18.6623 7.41604 19.8155C6.91289 19.9263 6.41136 19.6216 6.29673 19.135C6.18155 18.6485 6.49555 18.1636 6.99995 18.0528C12.7138 16.7904 17.615 17.3342 21.5689 19.6701C22.0095 19.9315 22.1492 20.4873 21.8788 20.9133ZM23.7147 16.9646C23.3762 17.497 22.6561 17.665 22.1063 17.3377C18.0743 14.9415 11.9282 14.2476 7.15918 15.647C6.54069 15.8276 5.88744 15.4907 5.69973 14.8938C5.51344 14.2959 5.86219 13.6657 6.47961 13.4839C11.9271 11.886 18.6994 12.66 23.3296 15.4105C23.8795 15.7378 24.0533 16.4337 23.7147 16.9646ZM23.8724 12.8532C19.038 10.0774 11.0618 9.82221 6.44611 11.1764C5.70492 11.3937 4.9211 10.9893 4.69648 10.2728C4.47187 9.55591 4.88993 8.79871 5.63166 8.58089C10.9302 7.02598 19.7383 7.3264 25.3042 10.5205C25.9723 10.903 26.1909 11.7354 25.795 12.379C25.401 13.0234 24.5376 13.2359 23.8731 12.8532H23.8724Z" fill="#1ED760"/>
</svg>
