<svg width="30" height="23" viewBox="0 0 30 23" fill="none" xmlns="http://www.w3.org/2000/svg">
<path fill-rule="evenodd" clip-rule="evenodd" d="M6.2772 12.1595L15.7566 3.1567C16.4007 2.54503 17.2576 2.2087 18.171 2.2087C19.0838 2.2087 19.9407 2.54471 20.5841 3.15638L21.3227 3.8578L22.8001 2.45464L22.0616 1.75322C21.024 0.767848 19.6424 0.225174 18.1704 0.225174C16.699 0.225493 15.3171 0.768167 14.2795 1.75386L4.8001 10.7564L6.2772 12.1595Z" fill="white"/>
<path fill-rule="evenodd" clip-rule="evenodd" d="M18.96 6.14715L17.4756 4.74607L7.95165 13.7356C6.61421 14.9979 4.43808 14.9982 3.10098 13.7362C1.76354 12.4739 1.76354 10.4196 3.10098 9.15725L11.3192 1.40076L9.83481 0L1.61689 7.75649C-0.538963 9.79129 -0.538963 13.1025 1.61689 15.137C2.65933 16.1209 4.04746 16.6631 5.52581 16.6631C7.00449 16.6631 8.39329 16.1205 9.43574 15.1366L18.96 6.14715Z" fill="white"/>
<path fill-rule="evenodd" clip-rule="evenodd" d="M28.3831 7.83075C27.341 6.84682 25.9528 6.30494 24.4738 6.30494C22.9951 6.30526 21.6063 6.84714 20.5639 7.83139L11.0402 16.8207L12.524 18.2218L22.0483 9.23218C23.3861 7.96981 25.5619 7.97013 26.899 9.23186C27.5458 9.84231 27.9019 10.655 27.9019 11.5209C27.9019 12.3871 27.5458 13.2001 26.899 13.8106L18.681 21.5672L20.1655 22.968L28.3831 15.2117C30.5393 13.1768 30.5393 9.86559 28.3831 7.83075Z" fill="white"/>
<path fill-rule="evenodd" clip-rule="evenodd" d="M23.7226 10.8085L14.2433 19.8113C12.9119 21.0752 10.7464 21.0758 9.4156 19.8116L8.67706 19.1102L7.19965 20.5134L7.93819 21.2148C8.97571 22.2002 10.3573 22.7428 11.8296 22.7428C13.301 22.7425 14.6826 22.1998 15.7204 21.2141L25.1997 12.2116L23.7226 10.8085Z" fill="white"/>
</svg>
